<?xml version="1.0" encoding="UTF-8"?>
<svg data-bbox="0 0 108 108" width="108" height="108" viewBox="0 0 108 108" xmlns="http://www.w3.org/2000/svg" data-type="color">
    <g>
        <path fill="#d3aa41" d="M108 0v108H0V0z" data-color="1"/>
        <path fill="#ffffff" d="M98.6 9.4v89.1H9.5V9.4z" data-color="2"/>
        <path d="M103.6 103.6H4.4V4.4h99.2zm-98.4-.8h97.7V5.2H5.2v97.7Z" fill="#ffffff" data-color="2"/>
        <path d="m23 27.5-.2-1c-.1.2-.2.3-.4.5-.2.1-.4.3-.6.4s-.4.2-.7.2h-.7c-.4 0-.9 0-1.3-.2s-.8-.4-1.1-.7q-.6-.6-.9-1.5c-.3-.9-.2-1.3-.2-2.1v-1c0-.3 0-.6.2-.9 0-.3.2-.6.3-.9s.3-.5.6-.7c.3-.3.7-.5 1.1-.7s.8-.2 1.3-.2.9 0 1.4.2c.4.2.8.4 1.1.7.2.2.4.5.5.7s.2.6.2.9h-1.1c0-.2 0-.4-.1-.5s-.2-.3-.3-.4c-.2-.2-.4-.4-.7-.5s-.6-.2-1-.2-.6 0-.8.2c-.3.1-.5.3-.7.5s-.3.4-.4.6-.2.5-.2.7v2.9c0 .3.1.5.2.7s.2.4.4.6.4.4.7.5.5.2.8.2.6 0 .9-.2c.3-.1.5-.2.7-.4.3-.3.5-.6.6-1s.2-.8.2-1.2h-2.3v-1h3.3v4.7H23Z" fill="#000000" data-color="3"/>
        <path d="M30.8 24.4c0 .5 0 .9-.2 1.4-.1.4-.4.8-.7 1.1-.2.2-.5.4-.8.5s-.7.2-1.1.2-.7 0-1.1-.2-.6-.3-.8-.5c-.3-.3-.6-.7-.7-1.1s-.2-.9-.2-1.4 0-.9.2-1.4c.1-.4.4-.8.7-1.1.2-.2.5-.4.8-.5s.7-.2 1.1-.2.7 0 1.1.2c.3.1.6.3.8.5.3.3.6.7.7 1.1s.2.9.2 1.4m-1.1 0c0-.4 0-.7-.1-1.1s-.2-.6-.5-.9c-.1-.1-.3-.2-.5-.3-.2 0-.4-.1-.6-.1s-.5 0-.6.1-.3.2-.5.3c-.2.2-.4.5-.5.9 0 .3-.1.7-.1 1.1s0 .7.1 1.1c0 .3.2.6.5.9.1.1.3.2.5.3s.4.1.6.1.5 0 .6-.1c.2 0 .3-.2.5-.3.2-.2.4-.5.5-.9s.1-.7.1-1.1" fill="#000000" data-color="3"/>
        <path d="M34.6 27.5h-.7c-.5 0-.8-.1-1-.4s-.3-.6-.3-1.1v-7.4h1v7.3c0 .2 0 .4.1.5 0 .1.2.2.4.2h.3v.9Z" fill="#000000" data-color="3"/>
        <path d="M40.1 27.5v-.8c-.3.3-.5.5-.9.7s-.7.2-1 .2-.7 0-1-.2-.5-.3-.7-.5c-.3-.3-.5-.7-.7-1.1s-.2-.9-.2-1.4 0-1 .2-1.5.4-.8.7-1.1c.2-.2.4-.3.7-.5s.6-.2 1-.2h.5c.2 0 .3 0 .5.2.2 0 .3.2.4.3s.2.2.3.4v-3.4h1v8.8H40Zm0-3.1c0-.4 0-.8-.1-1.1 0-.3-.3-.6-.5-.9-.1-.1-.3-.2-.4-.3-.2 0-.4-.1-.6-.1-.3 0-.6 0-.9.2-.2.1-.4.3-.5.5s-.2.5-.3.8v1.6c0 .3.1.5.3.8.1.2.3.4.5.5s.5.2.9.2.4 0 .6-.1c.2 0 .3-.2.4-.3.3-.2.4-.5.5-.9 0-.3.1-.7.1-1.1Z" fill="#000000" data-color="3"/>
        <path d="M20.2 33.7v7.6h-1.1v-7.6h-2.6v-1h6.2v1h-2.6Z" fill="#000000" data-color="3"/>
        <path d="M26.4 36.2h-.6c-.2 0-.5 0-.7.1-.2 0-.4.2-.5.3s-.2.3-.3.4c0 .2-.1.3-.2.5s0 .4 0 .5v3.2h-1V35h.9v1.1c.2-.4.5-.7.8-.8.3-.2.7-.3 1.1-.3h.5v1Z" fill="#000000" data-color="3"/>
        <path d="M32.8 41.2c-.1 0-.2 0-.3.1h-.4c-.3 0-.5 0-.7-.3-.2-.2-.2-.4-.2-.7-.2.3-.4.6-.8.7-.4.2-.7.3-1.2.3s-.7 0-.9-.2c-.3-.1-.5-.3-.7-.4-.2-.2-.3-.4-.4-.6 0-.2-.1-.5-.1-.7s0-.4.1-.6c0-.2.2-.4.4-.6s.4-.3.7-.5c.3-.1.6-.2 1.1-.2h1.9v-1.1c0-.2-.1-.3-.3-.5-.1 0-.2-.2-.4-.2H30c-.2 0-.5 0-.7.1-.2 0-.3.2-.4.3-.2.2-.3.5-.3.7h-1c0-.3 0-.5.2-.7 0-.2.2-.4.4-.6s.5-.4.8-.5.7-.2 1.1-.2c.6 0 1.1.1 1.4.3s.6.5.7.8.2.6.2 1v3.3h.2v.7Zm-1.6-2.9h-1.7c-.2.1-.3.1-.5.2s-.3.1-.4.2c-.1 0-.2.2-.3.3s-.1.3-.1.5c0 .3 0 .5.3.7q.3.3.9.3c.6 0 .5 0 .7-.1.2 0 .4-.2.6-.4s.3-.4.4-.6c0-.2.1-.5.1-.8v-.4Z" fill="#000000" data-color="3"/>
        <path d="M38.4 41.3v-3.9c0-.5-.1-.8-.3-1.1s-.6-.4-1-.4-.6 0-.8.3c-.2.2-.4.4-.5.7-.1.2-.2.5-.2.8v3.7h-1v-6.2h.9v.9c.2-.2.3-.3.4-.5.1-.1.3-.2.5-.3s.3-.2.5-.2h.5c.7 0 1.2.2 1.6.6s.5 1 .5 1.7v4.1h-1Z" fill="#000000" data-color="3"/>
        <path d="M46.2 39.5c0 .3 0 .5-.1.7s-.2.4-.4.5c-.2.2-.5.4-.9.5-.3.1-.7.2-1.1.2s-.8 0-1.1-.2c-.3-.1-.6-.3-.9-.5s-.3-.4-.4-.7c-.1-.2-.2-.5-.2-.8h1c0 .2 0 .4.1.6 0 .2.2.3.4.4.1.1.3.2.5.2h1.2c.2 0 .4-.1.5-.3 0 0 .2-.2.2-.3v-.4c0-.2 0-.4-.2-.6s-.4-.3-.7-.3h-1.5c-.5 0-.8-.2-1.1-.5s-.4-.7-.4-1.1 0-.5.2-.7c.1-.2.2-.4.4-.5.2-.2.5-.4.8-.5s.7-.2 1-.2.8 0 1.1.2c.3.1.6.3.8.6.1.2.2.3.3.5 0 .2.1.4.1.7h-1c0-.2 0-.3-.1-.4 0-.1-.1-.2-.2-.3-.2-.2-.6-.3-1-.3h-.3c-.1 0-.2 0-.4.1-.2 0-.3.2-.5.3s-.2.3-.2.5c0 .3 0 .4.2.6s.3.2.6.2h.6c.2 0 .5 0 .9.1.4 0 .8.3 1.1.6s.5.7.5 1.1Z" fill="#000000" data-color="3"/>
        <path d="M53.4 38.2c0 .5 0 1-.2 1.5s-.4.8-.7 1.1c-.2.2-.4.3-.7.5s-.6.2-1 .2h-.5c-.2 0-.3 0-.5-.2s-.3-.2-.4-.3-.2-.2-.3-.4V44h-1v-8.8h.9v.8c.3-.3.5-.5.9-.7.3-.2.7-.3 1-.3s.7 0 1 .2c.3.1.5.3.7.5.3.3.5.7.7 1.1s.2.9.2 1.4Zm-1.1 0v-.8c0-.3-.1-.5-.3-.8-.1-.2-.3-.4-.5-.5s-.5-.2-.9-.2-.4 0-.6.1c-.2 0-.3.2-.4.3-.3.2-.4.5-.5.9 0 .3-.1.7-.1 1.1s0 .8.1 1.1c0 .3.3.6.5.9.1.1.3.2.4.3.2 0 .4.1.6.1.3 0 .6 0 .9-.2.2-.1.4-.3.5-.5s.2-.5.3-.8 0-.6 0-.8Z" fill="#000000" data-color="3"/>
        <path d="M60.4 41.2c-.1 0-.2 0-.3.1h-.4c-.3 0-.5 0-.7-.3-.2-.2-.2-.4-.2-.7-.2.3-.4.6-.8.7-.4.2-.7.3-1.2.3s-.7 0-.9-.2c-.3-.1-.5-.3-.7-.4-.2-.2-.3-.4-.4-.6 0-.2-.1-.5-.1-.7s0-.4.1-.6c0-.2.2-.4.4-.6s.4-.3.7-.5c.3-.1.6-.2 1.1-.2h1.9v-1.1c0-.2-.1-.3-.3-.5-.1 0-.2-.2-.4-.2h-.6c-.2 0-.5 0-.7.1-.2 0-.3.2-.4.3-.2.2-.3.5-.3.7h-1c0-.3 0-.5.2-.7 0-.2.2-.4.4-.6s.5-.4.8-.5.7-.2 1.1-.2c.6 0 1.1.1 1.4.3s.6.5.7.8.2.6.2 1v3.3h.2v.7Zm-1.7-2.9H57c-.2.1-.3.1-.5.2s-.3.1-.4.2c-.1 0-.2.2-.3.3s-.1.3-.1.5c0 .3 0 .5.3.7q.3.3.9.3c.6 0 .5 0 .7-.1.2 0 .4-.2.6-.4s.3-.4.4-.6c0-.2.1-.5.1-.8v-.4Z" fill="#000000" data-color="3"/>
        <path d="M65.3 36.2h-.6c-.2 0-.5 0-.7.1-.2 0-.4.2-.5.3s-.2.3-.3.4c0 .2-.1.3-.2.5s0 .4 0 .5v3.2h-1V35h.9v1.1c.2-.4.5-.7.8-.8.3-.2.7-.3 1.1-.3h.5v1Z" fill="#000000" data-color="3"/>
        <path d="M71.5 37.9v.6h-4.4c0 .3 0 .6.2.8.1.3.3.5.4.7.3.3.7.4 1.1.4s.9-.1 1.1-.4c0 0 .2-.2.2-.3 0 0 .1-.2.1-.4h1q0 .45-.3.9c-.2.3-.4.5-.6.7-.2.1-.5.3-.7.3s-.5.1-.8.1c-.4 0-.8 0-1.2-.2-.3-.2-.6-.4-.9-.7s-.5-.6-.6-1-.2-.8-.2-1.2 0-.7.1-1.1.2-.6.4-.9q.3-.6.9-.9c.4-.2.9-.4 1.4-.4s.8 0 1.1.2.6.3.8.6.4.6.6 1c.1.4.2.8.2 1.2Zm-1-.2V37c0-.2-.2-.4-.3-.6s-.3-.3-.5-.4-.4-.2-.7-.2-.5 0-.7.2c-.2.1-.4.2-.5.4l-.3.6c0 .2-.1.4-.1.7h3.3Z" fill="#000000" data-color="3"/>
        <path d="M77.2 41.3v-3.9c0-.5-.1-.8-.3-1.1s-.6-.4-1-.4-.6 0-.8.3c-.2.2-.4.4-.5.7-.1.2-.2.5-.2.8v3.7h-1v-6.2h.9v.9c.2-.2.3-.3.4-.5.1-.1.3-.2.5-.3s.3-.2.5-.2h.5c.7 0 1.2.2 1.6.6s.5 1 .5 1.7v4.1h-1Z" fill="#000000" data-color="3"/>
        <path d="M85.2 39.2c0 .3 0 .6-.2.9-.1.3-.3.5-.5.7s-.5.4-.8.5-.6.2-1 .2c-.6 0-1-.1-1.4-.3s-.7-.5-.9-.8c-.2-.2-.3-.5-.4-.9 0-.3-.1-.7-.1-1.2s0-.9.1-1.2c0-.3.2-.6.4-.9s.5-.6.9-.8.8-.3 1.4-.3.7 0 1 .2.6.3.8.5.4.4.5.7.2.6.2.9h-1c0-.2 0-.4-.2-.6 0-.2-.2-.3-.3-.4s-.3-.2-.4-.3-.4-.1-.6-.1-.4 0-.6.1c-.2 0-.3.2-.5.3-.2.2-.4.5-.5.8 0 .4-.1.7-.1 1.1s0 .7.1 1.1c0 .3.2.6.5.8.1.1.3.2.5.3s.4.1.6.1.4 0 .6-.1c.2 0 .3-.2.5-.3.1-.1.2-.2.3-.4 0-.1.1-.3.1-.5h1Z" fill="#000000" data-color="3"/>
        <path d="M88.7 42.6c-.1.4-.3.7-.6 1-.3.2-.6.4-1.1.4h-.9v-.9h.7c.2 0 .4 0 .6-.1s.3-.3.4-.5l.4-1-2.5-6.2h1.2l1.8 4.9 1.7-4.9h1.1l-2.8 7.4Z" fill="#000000" data-color="3"/>
        <path d="M17.1 84.2c0-2.8 1.2-4.9 4.2-4.9s3.9 1.5 3.9 3.6v.2H23v-.3c0-1.2-.5-1.8-1.7-1.8s-1.9.8-1.9 3v.6c0 2.3.6 3 2 3s1.7-.5 1.7-1.8v-.4h2.1v.3c0 2.1-1.1 3.6-3.8 3.6s-4.3-2.1-4.3-4.9zm13-2.4c2.3 0 3 1.2 3 2.5v4.9h-1.9v-1c-.3.6-1 1.2-2 1.2s-2.4-.8-2.4-2.1.7-2.4 3-2.4h1.4v-.4c0-.7-.2-1.2-1.1-1.2s-1.2.3-1.2.9-1.8 0-1.8 0V84c0-1 .8-2.2 3-2.2m1 4.4c0-.1-1.3-.1-1.3-.1-.8 0-1.1.4-1.1.9 0 .7.3 1 .9 1 .9 0 1.5-.6 1.5-1.7Zm3.8-4.3h2v1.4c.3-.9 1-1.5 2.3-1.5s2.3.9 2.3 2.4v5h-2v-4.5c0-.9-.3-1.3-1.2-1.3s-1.5.7-1.5 1.4v4.3h-2v-7.2Zm13 6.2c-.3.6-1 1.2-2 1.2-2.2 0-3-2-3-3.6 0-2.3 1.1-3.9 3-3.9s1.7.4 2 .9v-3.4h2v9.9h-2v-1Zm0-1.5v-2.2c-.1-.6-.6-1.1-1.4-1.1s-1.6.7-1.6 2.2v.2c0 1.4.3 2.2 1.5 2.2s1.4-.5 1.5-1.2Zm3.8-6.6c0-.6.5-1.1 1.1-1.1s1.1.5 1.1 1.1-.5 1.1-1.1 1.1-1.1-.5-1.1-1.1m.1 1.9h2v7.2h-2zm8.4 6.2c-.3.6-1 1.2-2 1.2-2.2 0-3-2-3-3.6 0-2.3 1.1-3.9 3-3.9s1.7.4 2 .9v-3.4h2v9.9h-2v-1Zm0-1.5v-2.2c-.1-.6-.6-1.1-1.4-1.1s-1.6.7-1.6 2.2v.2c0 1.4.3 2.2 1.5 2.2s1.4-.5 1.5-1.2Zm3.4 1.5c0-.6.5-1.1 1.1-1.1s1.1.5 1.1 1.1-.5 1.1-1.1 1.1-1.1-.5-1.1-1.1" fill="#000000" data-color="3"/>
        <path d="M17.2 54.5c3.3-2.4 4.1-3.3 4.1-5.1s-.3-1.6-1.2-1.6-1.2.7-1.2 1.6v.7h-1.6v-.4c0-1.3.6-2.6 2.9-2.6s2.9.9 2.9 2.4-.8 2.7-4.5 5.1h3.1c.5 0 .6-.1.6-.6v-.4h.9v2.3h-5.9v-1.4Z" fill="#231f20" data-color="4"/>
        <path d="M31.5 51.4v.3c0 2.2-.4 4.3-3.5 4.3s-3.5-2.1-3.5-4.3v-.3c0-2.2.4-4.3 3.5-4.3s3.5 2.2 3.5 4.3m-5.1-.6v1.4c0 1.9.2 3.1 1.6 3.1s1.6-1.2 1.6-3.1v-1.4c0-1.9-.2-3.1-1.6-3.1s-1.6 1.2-1.6 3.1" fill="#231f20" data-color="4"/>
        <path d="M32.6 54.5c3.3-2.4 4.1-3.3 4.1-5.1s-.3-1.6-1.2-1.6-1.2.7-1.2 1.6v.7h-1.6v-.4c0-1.3.6-2.6 2.9-2.6s2.9.9 2.9 2.4-.8 2.7-4.5 5.1h3.1c.5 0 .6-.1.6-.6v-.4h.9v2.3h-5.9v-1.4Z" fill="#231f20" data-color="4"/>
        <path d="M41 51.2h.1c.4-.5 1-.8 2.1-.8 1.9 0 2.7 1 2.7 2.6v.2c0 1.7-.8 2.8-3.2 2.8s-3-1.2-3-2.3v-.3h1.6v.3c0 1.1.3 1.7 1.4 1.7s1.4-.6 1.4-2.1-.3-2.1-1.4-2.1-1.2.3-1.4.9h-1.2l.3-4.8h5.1v1.4h-4.4l-.2 2.6Z" fill="#231f20" data-color="4"/>
    </g>
</svg>
